<?xml version="1.0" standalone="no"?>
<!DOCTYPE svg PUBLIC "-//W3C//DTD SVG 20010904//EN"
 "http://www.w3.org/TR/2001/REC-SVG-20010904/DTD/svg10.dtd">
<svg version="1.0" xmlns="http://www.w3.org/2000/svg"
 width="250.000000pt" height="251.000000pt" viewBox="0 0 250.000000 251.000000"
 preserveAspectRatio="xMidYMid meet">

<g transform="translate(0.000000,251.000000) scale(0.100000,-0.100000)"
fill="#000000" stroke="none">
<path d="M1032 2395 c-158 -29 -311 -93 -452 -188 -92 -62 -242 -211 -295
-294 l-40 -61 -50 1 -50 2 -3 -608 c-2 -536 0 -608 13 -613 21 -8 114 23 150
51 17 12 44 42 60 65 l30 43 5 233 5 233 82 -92 c46 -51 123 -135 173 -187
l89 -95 48 50 c274 288 633 680 633 690 0 11 -59 86 -114 143 -60 63 -113 93
-169 95 l-42 2 -5 -87 -5 -86 -165 -210 c-91 -116 -169 -211 -175 -211 -5 0
-62 66 -125 146 -63 80 -148 188 -189 240 l-74 94 15 33 c9 18 44 67 78 109
207 257 562 399 896 357 268 -33 503 -163 666 -368 l51 -63 26 24 c14 13 41
34 59 46 l32 23 -22 31 c-45 63 -165 182 -243 240 -103 77 -275 160 -401 194
-82 21 -126 26 -259 29 -108 2 -184 -1 -233 -11z"/>
<path d="M2247 1856 c-60 -22 -117 -66 -166 -130 -25 -32 -117 -148 -204 -258
l-157 -199 -120 151 c-66 82 -122 150 -124 150 -3 0 -82 -84 -178 -187 -95
-104 -179 -193 -186 -198 -11 -9 -12 -61 -6 -278 8 -304 0 -284 96 -251 50 17
140 102 158 149 6 15 10 124 10 243 l1 217 26 -30 c72 -83 317 -345 322 -345
4 0 65 64 138 143 72 78 151 165 177 192 l46 50 -1 -232 c0 -205 2 -236 17
-263 l18 -29 -48 -70 c-127 -187 -326 -329 -552 -397 -109 -32 -319 -44 -442
-24 -140 22 -283 79 -413 167 -64 42 -193 167 -236 228 l-21 29 -40 -36 c-21
-19 -48 -40 -58 -46 -17 -9 -16 -12 10 -51 40 -57 200 -209 271 -258 327 -222
745 -262 1108 -107 183 79 396 253 496 407 43 67 44 67 80 61 20 -4 41 -7 46
-8 15 -2 25 364 22 819 l-2 400 -25 2 c-14 2 -42 -4 -63 -11z"/>
</g>
</svg>
